<svg id="Layer_1" data-name="Layer 1" xmlns="http://www.w3.org/2000/svg" viewBox="0 0 425.9 427">
  <defs>
    <style>
      .cls-1 {
        fill: #efefef;
      }
    </style>
  </defs>
  <title>email</title>
  <g>
    <path class="cls-1" d="M261,311.6c-24,18.5-38.9,27.7-53.9,27.7-14.3,0-28.8-8.6-51.2-25.5L22.9,427H397.8L262.5,310.5A14.313,14.313,0,0,1,261,311.6Z" transform="translate(0 0)"/>
    <path class="cls-1" d="M103,274.4C71.4,250.9,35,223.7,0,197V410.1A12.86,12.86,0,0,0,.4,412L134.6,298C124.9,290.7,114.4,282.9,103,274.4Z" transform="translate(0 0)"/>
    <path class="cls-1" d="M423.8,415a16.445,16.445,0,0,0,1-4.9V187.9c-42,31.5-102.8,77.2-141.2,106.5Z" transform="translate(0 0)"/>
    <path class="cls-1" d="M0,0V165.3c39.2,30.1,81.7,61.8,117.7,88.6,19.9,14.8,37.7,28.1,51.7,38.7,37.9,28.7,37.9,28.7,76.6-1.2,35-27,129.1-97.6,178.9-135L425.9,0ZM249.2,182c-10,0-19.3-6.8-18.5-22h-1c-8.8,14.8-20.3,22-35.3,22-14.5,0-27-11.8-27-31.5,0-31,24.5-59.3,59.3-59.3,10.8,0,20.3,2.3,26.8,5.3L245,141.8c-3.8,19-.8,27.8,7.5,28,12.8.3,27-16.8,27-45.8,0-36.3-21.8-62.3-60.5-62.3-40.8,0-75,32.3-75,83,0,41.8,27.3,67.5,64.3,67.5,14.3,0,27.5-3,37.8-8.8l4,10.8c-13.8,7.3-27.8,10-44.5,10-41,0-75.8-30-75.8-78,0-51.5,35.8-96,91.3-96,43.5,0,72.8,30.5,72.8,72.3C293.7,160,272.7,182,249.2,182Z" transform="translate(0 0)"/>
    <path class="cls-1" d="M184,149.5c0,11,5.5,19,16.5,19,14.5,0,27.8-18.5,30.5-34l5.3-28.3a41.45,41.45,0,0,0-12.5-1.8C201.7,104.5,184,125.3,184,149.5Z" transform="translate(0 0)"/>
  </g>
</svg>
