<svg id="Layer_1" data-name="Layer 1" xmlns="http://www.w3.org/2000/svg" viewBox="0 0 586.554 829.993">
  <defs>
    <style>
      .cls-1 {
        fill: #767676;
      }

      .cls-2 {
        fill: #d9d9d9;
      }

      .cls-3 {
        fill: #c5c5c5;
      }
    </style>
  </defs>
  <title>layerl</title>
  <g>
    <path class="cls-1" d="M61.833,834.332a3.771,3.771,0,0,0,.7,1.61H590.893q.036-414.935.024-829.993H4.363V777.774a3.774,3.774,0,0,0,1.613.7Z" transform="translate(-4.363 -5.949)"/>
    <path class="cls-1" d="M4.363,778.76l57.181,57.181h.986q0-.5,0-1c.236-3.125-1.515-5.354-3.515-7.364q-23.089-23.2-46.294-46.293c-2.022-2.008-4.251-3.753-7.382-3.51H4.363Z" transform="translate(-4.363 -5.949)"/>
    <path class="cls-2" d="M5.7,775.781H64.29v58.854H589.714V5.949H5.7Z" transform="translate(-4.363 -5.949)"/>
    <path class="cls-3" d="M5.647,777.774,62.53,834.635V777.774Z" transform="translate(-4.363 -5.949)"/>
  </g>
</svg>
