<svg id="Layer_1" data-name="Layer 1" xmlns="http://www.w3.org/2000/svg" viewBox="0 0 586.554 829.993">
  <defs>
    <style>
      .cls-1 {
        fill: #346097;
      }

      .cls-2 {
        fill: #7ab0e8;
      }

      .cls-3 {
        fill: #6ca0d8;
      }
    </style>
  </defs>
  <title>layerf</title>
  <g>
    <path class="cls-1" d="M62.53,835.941H590.893q.036-414.935.024-829.993H4.363V777.774a3.774,3.774,0,0,0,1.613.7" transform="translate(-4.363 -5.949)"/>
    <path class="cls-1" d="M4.363,778.76l57.181,57.181h.986q0-.5,0-1c.236-3.125-1.515-5.354-3.515-7.364q-23.089-23.2-46.294-46.293c-2.022-2.008-4.251-3.753-7.382-3.51H4.363Z" transform="translate(-4.363 -5.949)"/>
    <path class="cls-2" d="M9.056,772.935H67.072v58.274H590.917V5.949H9.056Z" transform="translate(-4.363 -5.949)"/>
    <path class="cls-3" d="M9.074,777.774,62.53,831.209V777.774Z" transform="translate(-4.363 -5.949)"/>
  </g>
</svg>
