<svg id="Capa_1" data-name="Capa 1" xmlns="http://www.w3.org/2000/svg" viewBox="0 0 430.2 430.1">
  <defs>
    <style>
      .cls-1 {
        fill: #efefef;
      }
    </style>
  </defs>
  <title>linkedin</title>
  <path id="LinkedIn_alt_" data-name="LinkedIn (alt)" class="cls-1" d="M398.4,0H31.8C14.2,0,0,13.8,0,30.8V399.3c0,17,14.2,30.8,31.8,30.8H398.4c17.5,0,31.8-13.8,31.8-30.8V30.8C430.1,13.8,415.9,0,398.4,0Zm-268,360h-65V165.8h65ZM97.9,139.3h-.4c-21.8,0-35.9-14.9-35.9-33.6,0-19,14.5-33.5,36.8-33.5,22.2,0,35.9,14.5,36.3,33.5C134.7,124.4,120.6,139.3,97.9,139.3ZM364.7,360h-65V256.1c0-26.1-9.4-43.9-32.9-43.9-18,0-28.6,12-33.3,23.6-1.7,4.1-2.2,9.9-2.2,15.7V360h-65s.9-176,0-194.2h65v27.5c8.6-13.2,24-32.1,58.5-32.1,42.8,0,74.8,27.7,74.8,87.4l.1,111.4ZM230.9,194c.1-.2.3-.4.4-.6v.6Z" transform="translate(0 0)"/>
</svg>
